<svg xmlns="http://www.w3.org/2000/svg" xmlns:xlink="http://www.w3.org/1999/xlink" width="500" zoomAndPan="magnify" viewBox="0 0 375 374.999991" height="500" preserveAspectRatio="xMidYMid meet" version="1.0"><defs><clipPath id="75afd17f18"><path d="M 105 105.363281 L 268 105.363281 L 268 259 L 105 259 Z M 105 105.363281 " clip-rule="nonzero"/></clipPath><clipPath id="20b7fcf370"><path d="M 177 106.347656 L 213 106.347656 L 213 150.597656 L 177 150.597656 Z M 177 106.347656 " clip-rule="nonzero"/></clipPath></defs><rect x="-37.5" width="450" fill="#ffffff" y="-37.499999" height="449.999989" fill-opacity="1"/><rect x="-37.5" width="450" fill="#ffffff" y="-37.499999" height="449.999989" fill-opacity="1"/><rect x="-37.5" width="450" fill="#0d1612" y="-37.499999" height="449.999989" fill-opacity="1"/><path fill="#ffd9dd" d="M 249.40625 195.792969 C 249.816406 188 249.273438 178.886719 249.273438 163.070312 L 249.195312 163.066406 C 249.957031 161.101562 249.960938 158.929688 248.792969 156.734375 C 248.78125 155.8125 248.769531 154.886719 248.761719 153.960938 C 252.4375 151.523438 254.082031 147.066406 253.570312 143.179688 C 253.179688 140.203125 251.523438 137.558594 248.539062 136.414062 C 248.046875 136.226562 247.523438 136.082031 246.960938 135.980469 C 249.203125 130.691406 243.195312 122.855469 236.386719 122.71875 C 235.800781 122.707031 235.207031 122.761719 234.613281 122.871094 C 234.492188 122.890625 234.375 122.910156 234.253906 122.933594 C 233.621094 116.242188 226.699219 110.816406 217.652344 114.910156 C 214.40625 109.941406 208.695312 107.980469 203.6875 109.777344 C 202.53125 110.195312 201.414062 110.808594 200.371094 111.632812 C 200.132812 111.195312 199.835938 110.792969 199.5 110.414062 C 195.332031 105.703125 184.515625 105.726562 181.269531 111.734375 C 180.785156 111.769531 180.296875 111.8125 179.8125 111.855469 C 172.347656 108.367188 167.921875 111.953125 166.152344 114.019531 C 165.472656 114.179688 164.796875 114.339844 164.125 114.511719 C 162.941406 113.90625 161.515625 113.628906 160.039062 113.652344 C 156.257812 113.707031 152.183594 115.6875 151.269531 118.878906 C 151.257812 118.882812 151.25 118.890625 151.238281 118.894531 C 149.574219 117.589844 147.476562 116.898438 145.359375 116.839844 C 143.707031 116.796875 142.042969 117.140625 140.5625 117.886719 C 137.175781 119.597656 134.914062 123.328125 134.960938 127.121094 C 134.792969 127.101562 134.621094 127.089844 134.449219 127.085938 C 132.511719 127.027344 130.542969 127.835938 129.054688 129.199219 C 128.574219 129.632812 128.140625 130.125 127.78125 130.667969 C 126.375 132.765625 126.007812 135.503906 126.75 137.910156 C 126.847656 138.238281 126.96875 138.558594 127.113281 138.871094 C 125.996094 139.285156 125.050781 139.914062 124.28125 140.695312 C 122.585938 142.414062 121.761719 144.847656 121.933594 147.253906 C 122.074219 149.25 123.171875 151.753906 124.6875 153.785156 C 124.390625 163.472656 124.128906 181.25 124.429688 194.082031 C 105.332031 204.050781 98.304688 225.765625 123.410156 240.09375 C 175.121094 269.609375 234.996094 254.960938 252.800781 240.582031 C 265.183594 230.582031 276.632812 209.121094 249.40625 195.792969 Z M 247.390625 154.730469 C 247.457031 154.699219 247.523438 154.664062 247.589844 154.628906 C 247.566406 154.714844 247.539062 154.796875 247.515625 154.878906 C 247.472656 154.828125 247.433594 154.78125 247.390625 154.730469 Z M 126.40625 155.695312 L 126.351562 155.691406 C 126.339844 155.902344 126.332031 156.121094 126.320312 156.34375 C 126.203125 155.996094 126.089844 155.644531 125.988281 155.296875 C 126.125 155.433594 126.265625 155.566406 126.40625 155.695312 Z M 248.453125 156.148438 C 248.25 155.828125 248.027344 155.507812 247.773438 155.191406 C 247.847656 154.933594 247.921875 154.679688 247.988281 154.425781 C 248.136719 154.34375 248.285156 154.253906 248.429688 154.167969 C 248.4375 154.828125 248.445312 155.488281 248.453125 156.148438 Z M 181.101562 112.082031 C 181.046875 112.195312 180.988281 112.304688 180.941406 112.421875 C 180.757812 112.324219 180.578125 112.230469 180.398438 112.136719 C 180.632812 112.117188 180.867188 112.101562 181.101562 112.082031 Z M 165.253906 115.265625 C 165.035156 115.074219 164.792969 114.902344 164.542969 114.75 C 164.964844 114.644531 165.386719 114.539062 165.8125 114.441406 C 165.4375 114.925781 165.253906 115.257812 165.253906 115.265625 Z M 125.011719 154.199219 C 125.167969 154.398438 125.332031 154.589844 125.496094 154.773438 C 125.710938 155.589844 125.96875 156.402344 126.28125 157.214844 C 125.878906 165.84375 124.824219 181.589844 124.757812 193.828125 C 124.46875 181.207031 124.71875 163.90625 125.011719 154.199219 Z M 125.011719 154.199219 " fill-opacity="1" fill-rule="nonzero"/><path fill="#a7d9ba" d="M 159.308594 248.351562 C 159.34375 248.359375 159.421875 248.371094 159.519531 248.386719 C 159.808594 248.433594 160.085938 248.386719 160.316406 248.253906 C 160.578125 248.101562 160.769531 247.847656 160.851562 247.558594 C 161.007812 246.238281 160.191406 246.210938 159.441406 245.914062 C 159.289062 245.871094 159.558594 245.96875 159.652344 246.011719 C 158.324219 245.492188 156.957031 245.058594 155.621094 244.546875 C 154.34375 244.144531 149.367188 242.3125 146.675781 241.214844 C 144.199219 240.144531 141.722656 239.050781 139.355469 237.75 C 137.023438 236.441406 134.820312 234.925781 132.597656 233.445312 C 128.472656 230.507812 128.394531 230.585938 125.3125 227.636719 C 122.785156 225.113281 122.207031 224.554688 120.480469 221.160156 C 118.832031 217.332031 118.992188 213.792969 120.015625 210.183594 C 120.597656 208.488281 120.464844 208.785156 120.859375 207.996094 C 121.175781 207.40625 121.757812 206.90625 121.777344 206.203125 C 122.125 204.25 119.585938 203 118.207031 204.425781 C 117.273438 205.546875 117.351562 205.425781 117.113281 205.765625 C 117.109375 205.773438 117.105469 205.78125 117.097656 205.78125 C 117.042969 205.84375 117.015625 205.878906 117.050781 205.847656 C 116.796875 206.167969 116.550781 206.492188 116.324219 206.832031 C 115.601562 207.800781 115.101562 208.894531 114.757812 210.050781 C 113.910156 212.664062 113.769531 215.433594 114.28125 218.128906 C 114.660156 221.042969 115.875 223.792969 117.699219 226.089844 C 120.769531 230.203125 125.164062 233.0625 129.339844 235.949219 C 131.78125 237.519531 134.179688 239.164062 136.699219 240.613281 C 139.035156 241.980469 143.089844 243.714844 144.125 244.136719 C 148.640625 245.953125 153.347656 247.285156 157.085938 247.949219 C 157.628906 248.046875 158.167969 248.167969 158.714844 248.25 C 158.753906 248.261719 158.792969 248.265625 158.832031 248.273438 C 159.105469 248.320312 159.25 248.339844 159.328125 248.351562 C 159.320312 248.351562 159.3125 248.351562 159.308594 248.351562 Z M 249.40625 195.789062 C 276.632812 209.121094 265.183594 230.582031 252.800781 240.582031 C 235 254.960938 175.121094 269.605469 123.414062 240.09375 C 98.304688 225.765625 105.332031 204.050781 124.429688 194.078125 C 124.539062 194.023438 124.644531 193.964844 124.757812 193.90625 C 124.738281 197.742188 124.816406 201.234375 125.042969 204.046875 C 125.546875 210.292969 128.949219 216.851562 136.28125 223.335938 C 161.820312 245.933594 212.074219 245.539062 234.039062 226.75 C 242.175781 219.792969 246.726562 212.808594 248.109375 206.09375 C 248.832031 202.597656 249.214844 199.332031 249.40625 195.789062 Z M 177.398438 251.804688 C 178.746094 251.324219 179.082031 249.421875 178.066406 248.449219 C 177.066406 247.578125 175.597656 247.613281 174.367188 247.296875 C 172.3125 246.988281 171.316406 246.855469 170.476562 246.699219 C 169.664062 246.523438 168.792969 246.140625 168.019531 246.644531 C 166.78125 247.335938 166.773438 249.257812 168.019531 249.945312 C 170.117188 251.039062 172.46875 251.5 174.792969 251.816406 C 175.640625 251.898438 176.59375 252.167969 177.398438 251.804688 Z M 177.398438 251.804688 " fill-opacity="1" fill-rule="nonzero"/><path fill="#fffaf2" d="M 124.757812 193.90625 C 124.648438 193.964844 124.539062 194.023438 124.429688 194.082031 C 124.128906 181.25 124.390625 163.472656 124.6875 153.785156 C 124.792969 153.925781 124.902344 154.0625 125.011719 154.199219 C 124.71875 163.90625 124.472656 181.207031 124.757812 193.828125 C 124.757812 193.855469 124.757812 193.882812 124.757812 193.90625 Z M 248.453125 156.148438 C 248.574219 156.34375 248.691406 156.539062 248.792969 156.734375 C 248.78125 155.8125 248.769531 154.886719 248.761719 153.960938 C 248.65625 154.03125 248.542969 154.097656 248.429688 154.167969 C 248.4375 154.828125 248.445312 155.488281 248.453125 156.148438 Z M 126.320312 156.34375 C 126.203125 155.996094 126.089844 155.644531 125.988281 155.296875 C 125.820312 155.128906 125.65625 154.953125 125.496094 154.773438 C 125.707031 155.589844 125.96875 156.402344 126.28125 157.214844 C 126.296875 156.914062 126.308594 156.625 126.320312 156.34375 Z M 181.101562 112.082031 C 181.15625 111.964844 181.207031 111.847656 181.269531 111.734375 C 180.785156 111.769531 180.296875 111.8125 179.8125 111.855469 C 180.003906 111.945312 180.199219 112.039062 180.398438 112.136719 C 180.632812 112.117188 180.867188 112.101562 181.101562 112.082031 Z M 247.589844 154.628906 C 247.566406 154.714844 247.539062 154.796875 247.515625 154.878906 C 247.601562 154.984375 247.691406 155.085938 247.773438 155.191406 C 247.847656 154.933594 247.921875 154.679688 247.988281 154.425781 C 247.855469 154.496094 247.722656 154.5625 247.589844 154.628906 Z M 151.269531 118.878906 C 151.257812 118.882812 151.25 118.890625 151.238281 118.894531 C 151.246094 118.898438 151.253906 118.902344 151.257812 118.910156 C 151.261719 118.898438 151.265625 118.890625 151.269531 118.878906 Z M 164.542969 114.75 C 164.964844 114.644531 165.386719 114.539062 165.8125 114.441406 C 165.914062 114.3125 166.027344 114.171875 166.152344 114.019531 C 165.472656 114.179688 164.796875 114.339844 164.125 114.511719 C 164.242188 114.574219 164.363281 114.636719 164.476562 114.707031 C 164.5 114.71875 164.519531 114.734375 164.542969 114.75 Z M 234.117188 210.335938 C 231.492188 209.5 228.683594 212.398438 229.320312 215.046875 C 229.960938 217.699219 233.699219 218.828125 235.613281 216.949219 C 237.523438 215.066406 236.636719 211.140625 234.117188 210.335938 Z M 188.335938 221.898438 C 185.710938 221.0625 182.902344 223.960938 183.542969 226.609375 C 184.179688 229.261719 187.917969 230.390625 189.832031 228.507812 C 191.746094 226.628906 190.855469 222.699219 188.335938 221.898438 Z M 139.257812 207.378906 C 141.167969 205.5 140.28125 201.570312 137.761719 200.769531 C 135.136719 199.933594 132.328125 202.828125 132.964844 205.480469 C 133.605469 208.128906 137.34375 209.257812 139.257812 207.378906 Z M 173.46875 203.535156 C 175.382812 201.652344 174.492188 197.726562 171.972656 196.921875 C 169.347656 196.085938 166.542969 198.984375 167.179688 201.632812 C 167.820312 204.285156 171.558594 205.414062 173.46875 203.535156 Z M 211.191406 207.378906 C 213.105469 205.5 212.21875 201.570312 209.699219 200.769531 C 207.074219 199.933594 204.265625 202.828125 204.902344 205.480469 C 205.542969 208.128906 209.28125 209.257812 211.191406 207.378906 Z M 145.871094 146.929688 C 146.511719 149.578125 150.25 150.707031 152.160156 148.828125 C 154.074219 146.949219 153.183594 143.019531 150.664062 142.21875 C 148.039062 141.382812 145.230469 144.277344 145.871094 146.929688 Z M 189.542969 134.535156 C 191.457031 132.65625 190.566406 128.726562 188.046875 127.925781 C 185.421875 127.089844 182.613281 129.984375 183.253906 132.636719 C 183.890625 135.285156 187.628906 136.414062 189.542969 134.535156 Z M 170.886719 160.550781 C 171.527344 163.199219 175.265625 164.328125 177.175781 162.449219 C 179.089844 160.570312 178.199219 156.640625 175.679688 155.839844 C 173.054688 155.003906 170.246094 157.898438 170.886719 160.550781 Z M 206.9375 161.441406 C 207.578125 164.089844 211.316406 165.21875 213.226562 163.339844 C 215.140625 161.460938 214.25 157.53125 211.730469 156.730469 C 209.105469 155.894531 206.300781 158.789062 206.9375 161.441406 Z M 218.605469 138.378906 C 220.519531 136.5 219.628906 132.570312 217.109375 131.769531 C 214.484375 130.933594 211.679688 133.828125 212.316406 136.480469 C 212.957031 139.132812 216.695312 140.261719 218.605469 138.378906 Z M 133.480469 194.433594 C 133.417969 194.953125 133.367188 195.503906 133.605469 195.988281 C 134.472656 198.207031 137.886719 197.507812 137.859375 195.121094 C 137.476562 190.621094 137.628906 186.09375 138.023438 181.597656 C 137.953125 179.21875 134.492188 179.214844 134.414062 181.597656 C 134.058594 185.140625 133.941406 188.699219 133.703125 192.246094 C 133.628906 192.976562 133.550781 193.707031 133.480469 194.433594 Z M 158.25 132.484375 C 156.457031 133.542969 154.570312 134.582031 153.210938 136.191406 C 152.804688 136.6875 152.230469 137.085938 151.960938 137.671875 C 151.355469 138.988281 153.121094 140.167969 154.132812 139.136719 C 155.203125 138.089844 155.625 137.835938 157.398438 136.960938 C 159.695312 135.664062 163.605469 134.300781 165.378906 134.054688 C 168.339844 133.773438 171.355469 133.472656 174.324219 133.800781 C 174.34375 133.804688 174.363281 133.804688 174.382812 133.804688 C 174.472656 133.816406 174.566406 133.820312 174.65625 133.832031 L 174.539062 133.816406 C 177.667969 134 178.15625 129.210938 174.691406 128.988281 C 173.183594 129.039062 171.671875 129.085938 170.171875 129.269531 C 168.117188 129.527344 166.042969 129.691406 164.03125 130.195312 C 162.015625 130.699219 160.09375 131.539062 158.25 132.484375 Z M 229.523438 151.933594 C 230.347656 150.253906 230.953125 148.480469 231.277344 146.640625 C 231.410156 145.988281 231.777344 145.335938 231.632812 144.664062 C 231.398438 142.457031 228.1875 142.253906 227.609375 144.390625 C 227.039062 146.332031 225.15625 149.289062 223.78125 151.105469 C 223.769531 151.121094 223.753906 151.140625 223.730469 151.171875 C 223 152.089844 222.164062 152.921875 221.386719 153.804688 C 220.871094 154.359375 220.300781 154.859375 219.714844 155.34375 C 219.320312 155.601562 218.898438 155.785156 218.546875 156.132812 C 218.398438 156.285156 218.222656 156.550781 218.074219 156.75 C 217.082031 158.324219 218.441406 160.554688 220.304688 160.371094 C 220.789062 160.40625 221.230469 160.183594 221.644531 159.988281 C 222.75 159.441406 223.660156 158.589844 224.613281 157.824219 C 224.441406 157.957031 224.269531 158.089844 224.097656 158.222656 C 224.929688 157.5625 225.816406 156.957031 226.554688 156.195312 C 227.710938 154.90625 228.78125 153.507812 229.523438 151.933594 Z M 241.699219 205.636719 C 242.082031 205.203125 242.351562 204.6875 242.335938 204.097656 C 242.335938 202.640625 242.339844 201.179688 242.351562 199.722656 C 242.386719 195.3125 242.5 190.902344 242.636719 186.492188 C 242.695312 185.003906 242.761719 183.511719 242.746094 182.023438 C 242.734375 181.507812 242.824219 180.957031 242.5625 180.496094 C 241.710938 178.316406 238.390625 179 238.398438 181.332031 C 238.300781 188.742188 237.929688 196.148438 237.988281 203.558594 C 237.667969 205.722656 240.046875 207.175781 241.699219 205.636719 Z M 257 210.371094 C 256.546875 209.808594 256.21875 209.097656 255.628906 208.667969 C 253.601562 207.042969 250.824219 209.507812 252.121094 211.75 C 252.429688 212.230469 252.75 212.710938 253.003906 213.226562 C 253.515625 214.683594 253.332031 214.578125 253.410156 214.957031 C 253.484375 215.871094 253.410156 216.785156 253.335938 217.699219 C 253.332031 217.738281 253.324219 217.777344 253.320312 217.816406 C 253.199219 218.574219 253.011719 219.320312 252.792969 220.058594 C 252.582031 220.707031 252.386719 221.359375 252.132812 221.996094 C 251.277344 223.949219 250.324219 225.871094 249.027344 227.578125 C 248.824219 227.824219 248.621094 228.078125 248.410156 228.320312 C 244.785156 232.34375 242.683594 233.941406 238.339844 236.664062 C 234.828125 238.859375 231.257812 240.953125 227.648438 242.984375 C 226.691406 243.546875 225.410156 244.226562 225.15625 244.578125 C 224.558594 245.257812 225.140625 246.421875 226.039062 246.390625 C 227.421875 246.09375 228.375 245.519531 230.449219 244.675781 C 233.90625 243.207031 235.863281 242.234375 239.5625 240.3125 C 245.890625 237.195312 252.039062 233.105469 256.042969 227.179688 C 257.0625 225.648438 257.886719 223.972656 258.441406 222.222656 C 259.058594 219.707031 259.277344 217.078125 258.722656 214.53125 C 258.445312 213.042969 257.808594 211.648438 257 210.371094 Z M 257 210.371094 " fill-opacity="1" fill-rule="nonzero"/><g clip-path="url(#75afd17f18)"><path fill="#bb7953" d="M 267.550781 213.929688 C 266.359375 206.179688 260.839844 199.757812 251.125 194.78125 C 251.304688 190.429688 251.222656 185.644531 251.121094 179.625 C 251.039062 174.941406 250.945312 169.636719 250.945312 163.128906 C 251.8125 160.460938 251.433594 157.738281 249.855469 155.238281 C 253.691406 152.589844 255.859375 147.820312 255.238281 142.996094 C 254.734375 139.082031 252.410156 136.082031 249.015625 134.816406 C 249.386719 132.457031 248.71875 129.824219 247.078125 127.34375 C 244.386719 123.28125 239.953125 120.832031 235.636719 121.058594 C 234.355469 115.613281 229.597656 111.820312 223.742188 111.820312 C 221.945312 111.820312 220.101562 112.171875 218.238281 112.863281 C 215.539062 109.449219 211.597656 107.449219 207.449219 107.449219 C 205.085938 107.449219 202.808594 108.09375 200.769531 109.324219 C 198.59375 106.875 194.859375 105.363281 190.730469 105.363281 C 186.128906 105.363281 182.273438 107.183594 180.238281 110.207031 C 178.035156 109.21875 175.902344 108.71875 173.875 108.71875 C 171.058594 108.71875 168.429688 109.695312 166.269531 111.546875 C 166.253906 111.558594 165.523438 112.195312 164.828125 112.996094 C 163.511719 112.332031 161.917969 111.976562 160.195312 111.976562 C 156.585938 111.976562 152.511719 113.515625 150.554688 116.476562 C 148.902344 115.621094 147.015625 115.164062 145.078125 115.164062 C 143.226562 115.164062 141.402344 115.589844 139.808594 116.394531 C 136.355469 118.136719 133.921875 121.644531 133.394531 125.453125 C 130.636719 125.730469 128.007812 127.316406 126.390625 129.738281 C 124.789062 132.128906 124.3125 135.226562 125.039062 138.007812 C 121.859375 139.859375 119.984375 143.4375 120.265625 147.371094 C 120.460938 150.105469 122.222656 153.796875 124.648438 156.3125 C 124.546875 158.582031 124.394531 161.421875 124.21875 164.667969 C 123.753906 173.207031 123.171875 183.882812 123.089844 192.894531 C 120.441406 194.328125 117.984375 195.996094 115.777344 197.890625 C 110.28125 202.617188 106.738281 208.488281 105.796875 214.425781 C 104.84375 220.433594 105.761719 231.945312 122.582031 241.546875 C 142.445312 252.882812 165.730469 258.875 189.917969 258.878906 L 189.925781 258.878906 C 219.386719 258.878906 243.71875 250.070312 253.851562 241.882812 C 261.234375 235.921875 269.25 225.023438 267.550781 213.929688 Z M 247.773438 179.679688 C 247.976562 191.449219 248.089844 197.929688 246.472656 205.753906 C 245.113281 212.332031 240.566406 218.96875 232.953125 225.480469 C 223.054688 233.949219 206.566406 238.910156 188.546875 238.910156 C 187.878906 238.910156 187.207031 238.902344 186.535156 238.890625 C 166.921875 238.488281 149.007812 232.363281 137.390625 222.085938 C 130.804688 216.257812 127.210938 210.144531 126.710938 203.914062 C 125.96875 194.683594 126.832031 178.191406 127.507812 165.796875 C 129.5625 168.871094 133.292969 170.386719 135.398438 170.988281 C 136.542969 177.085938 143.445312 182.722656 150.167969 182.722656 C 150.964844 182.722656 151.742188 182.640625 152.484375 182.484375 C 153.917969 187.164062 158.167969 189.601562 162.074219 189.601562 C 163.871094 189.601562 165.601562 189.113281 167.109375 188.195312 C 169.039062 191.171875 172.554688 193.730469 176.667969 193.730469 C 178.796875 193.726562 181.855469 193.023438 184.953125 189.910156 C 187.390625 192.191406 191.0625 194.15625 194.902344 194.15625 C 195.71875 194.15625 196.519531 194.0625 197.273438 193.878906 C 202.320312 192.628906 204.949219 189.554688 206.191406 187.265625 C 208.003906 188.382812 210.183594 189 212.433594 189 C 216.441406 189 221.164062 186.972656 223.210938 181.4375 C 224.375 181.789062 225.824219 182.039062 227.371094 182.039062 C 230.417969 182.039062 232.964844 181.078125 234.738281 179.253906 C 236.328125 177.621094 237.234375 175.375 237.441406 172.5625 C 241.074219 172.476562 244.902344 170.742188 247.621094 168.171875 C 247.652344 172.492188 247.714844 176.253906 247.773438 179.679688 Z M 203.820312 184.433594 C 203.828125 184.367188 203.835938 184.3125 203.84375 184.277344 C 203.835938 184.328125 203.828125 184.378906 203.820312 184.433594 Z M 166.832031 115.824219 C 166.804688 115.898438 166.777344 115.957031 166.757812 116 C 166.785156 115.941406 166.808594 115.882812 166.832031 115.824219 Z M 127.691406 140.441406 C 128.128906 140.277344 128.476562 139.941406 128.65625 139.515625 C 128.835938 139.085938 128.828125 138.601562 128.632812 138.175781 C 127.683594 136.089844 127.890625 133.503906 129.167969 131.597656 C 130.324219 129.871094 132.324219 128.753906 134.253906 128.753906 C 134.429688 128.753906 134.609375 128.761719 134.777344 128.78125 C 135.253906 128.835938 135.730469 128.679688 136.085938 128.359375 C 136.441406 128.035156 136.640625 127.578125 136.632812 127.097656 C 136.59375 123.964844 138.519531 120.789062 141.316406 119.378906 C 142.445312 118.808594 143.746094 118.507812 145.078125 118.507812 C 146.992188 118.507812 148.820312 119.117188 150.226562 120.222656 C 150.664062 120.566406 151.25 120.671875 151.78125 120.496094 C 152.3125 120.324219 152.71875 119.894531 152.871094 119.359375 C 153.492188 117.132812 156.78125 115.320312 160.199219 115.320312 C 161.847656 115.320312 163.257812 115.75 164.167969 116.53125 C 164.660156 116.957031 165.359375 117.054688 165.953125 116.785156 C 166.300781 116.625 166.574219 116.355469 166.742188 116.03125 C 166.902344 115.765625 169.179688 112.0625 173.875 112.0625 C 175.796875 112.0625 177.90625 112.679688 180.144531 113.890625 C 180.5625 114.117188 181.054688 114.15625 181.5 113.996094 C 181.949219 113.839844 182.304688 113.5 182.488281 113.0625 C 183.816406 109.851562 187.617188 108.707031 190.734375 108.707031 C 194.390625 108.707031 197.679688 110.207031 198.910156 112.441406 C 199.144531 112.871094 199.5625 113.175781 200.042969 113.273438 C 200.523438 113.371094 201.027344 113.25 201.410156 112.945312 C 203.1875 111.539062 205.277344 110.792969 207.453125 110.792969 C 210.90625 110.792969 214.195312 112.675781 216.253906 115.824219 C 216.703125 116.515625 217.589844 116.773438 218.34375 116.433594 C 220.203125 115.59375 222.019531 115.164062 223.742188 115.164062 C 229.058594 115.164062 232.21875 119.152344 232.589844 123.09375 C 232.636719 123.570312 232.886719 124.007812 233.273438 124.289062 C 233.664062 124.570312 234.15625 124.671875 234.625 124.566406 C 235.140625 124.449219 235.671875 124.390625 236.203125 124.390625 C 239.183594 124.390625 242.359375 126.273438 244.289062 129.191406 C 245.714844 131.34375 246.136719 133.636719 245.421875 135.324219 C 245.222656 135.792969 245.25 136.324219 245.488281 136.773438 C 245.730469 137.21875 246.164062 137.535156 246.664062 137.625 C 250.835938 138.382812 251.730469 141.933594 251.921875 143.421875 C 252.351562 146.765625 250.894531 151.257812 246.6875 153.214844 C 246.207031 153.4375 245.863281 153.871094 245.753906 154.386719 C 245.644531 154.902344 245.785156 155.4375 246.136719 155.835938 C 248.109375 158.082031 248.566406 160.433594 247.488281 162.8125 C 245.917969 166.285156 241.1875 169.21875 237.160156 169.21875 C 236.78125 169.21875 236.410156 169.191406 236.0625 169.136719 C 235.574219 169.0625 235.074219 169.207031 234.703125 169.535156 C 234.328125 169.863281 234.121094 170.339844 234.136719 170.835938 C 234.210938 173.574219 233.605469 175.621094 232.34375 176.921875 C 230.917969 178.386719 228.851562 178.691406 227.371094 178.691406 C 225.40625 178.691406 223.644531 178.148438 223.023438 177.761719 C 222.5625 177.476562 221.996094 177.429688 221.496094 177.636719 C 220.996094 177.84375 220.628906 178.28125 220.507812 178.808594 C 219.050781 185.160156 213.960938 185.652344 212.433594 185.652344 C 210.238281 185.652344 208.082031 184.816406 206.660156 183.414062 C 206.179688 182.941406 205.460938 182.804688 204.839844 183.0625 C 204.332031 183.277344 203.96875 183.71875 203.851562 184.242188 C 203.777344 184.515625 202.390625 189.167969 196.472656 190.628906 C 195.980469 190.75 195.449219 190.8125 194.902344 190.8125 C 191.558594 190.8125 188.003906 188.585938 186.222656 186.382812 C 185.90625 185.992188 185.429688 185.765625 184.925781 185.765625 C 184.921875 185.765625 184.921875 185.765625 184.921875 185.765625 C 184.417969 185.765625 183.941406 185.992188 183.625 186.378906 C 181.472656 189.035156 179.132812 190.382812 176.667969 190.382812 C 173.214844 190.382812 170.253906 187.632812 169.21875 185.046875 C 169.011719 184.53125 168.5625 184.148438 168.019531 184.03125 C 167.476562 183.914062 166.90625 184.074219 166.507812 184.460938 C 165.304688 185.617188 163.730469 186.253906 162.074219 186.253906 C 159.128906 186.257812 155.890625 184.152344 155.394531 180.128906 C 155.332031 179.605469 155.023438 179.140625 154.5625 178.878906 C 154.105469 178.617188 153.550781 178.585938 153.066406 178.800781 C 152.191406 179.183594 151.214844 179.375 150.167969 179.375 C 144.792969 179.375 138.839844 174.324219 138.585938 169.546875 C 138.542969 168.726562 137.914062 168.074219 137.121094 167.976562 C 135.964844 167.761719 131.625 166.433594 130.03125 163.511719 C 129.160156 161.914062 129.191406 160.042969 130.136719 157.792969 C 130.308594 157.382812 130.308594 156.921875 130.140625 156.511719 C 129.972656 156.101562 129.644531 155.773438 129.234375 155.601562 C 126.714844 154.554688 123.820312 150.203125 123.601562 147.132812 C 123.421875 144.621094 124.617188 141.578125 127.691406 140.441406 Z M 251.75 239.28125 C 242.058594 247.109375 218.578125 255.535156 189.921875 255.53125 L 189.914062 255.53125 C 166.308594 255.53125 143.597656 249.691406 124.238281 238.640625 C 113.066406 232.265625 107.691406 223.851562 109.101562 214.949219 C 110.21875 207.890625 115.488281 201.316406 123.089844 196.757812 C 123.113281 199.515625 123.203125 202.035156 123.375 204.183594 C 123.949219 211.304688 127.917969 218.167969 135.175781 224.589844 C 147.378906 235.386719 166.074219 241.820312 186.464844 242.234375 C 187.15625 242.25 187.84375 242.253906 188.53125 242.253906 C 207.335938 242.253906 224.636719 236.996094 235.125 228.023438 C 243.316406 221.019531 248.234375 213.753906 249.75 206.433594 C 250.3125 203.710938 250.671875 201.117188 250.898438 198.445312 C 258.792969 202.785156 263.277344 208.144531 264.242188 214.4375 C 265.730469 224.128906 258.441406 233.878906 251.75 239.28125 Z M 132.292969 142.128906 C 132.359375 142.152344 132.421875 142.175781 132.488281 142.199219 C 133.789062 142.707031 133.945312 143.726562 134.054688 146.492188 C 134.070312 146.902344 134.085938 147.324219 134.113281 147.746094 C 134.265625 150.246094 132.214844 153.050781 131.785156 153.429688 C 131.121094 154 131.007812 154.984375 131.527344 155.691406 C 132.046875 156.394531 133.019531 156.582031 133.761719 156.117188 C 134.382812 155.726562 134.976562 155.539062 135.570312 155.539062 C 137.175781 155.539062 138.601562 156.945312 139.515625 158.128906 C 141.210938 160.328125 141.078125 163.011719 139.191406 164.652344 C 138.53125 165.226562 138.425781 166.210938 138.945312 166.910156 C 139.464844 167.613281 140.433594 167.796875 141.175781 167.332031 C 142.601562 166.441406 144.261719 165.96875 145.972656 165.96875 C 147.445312 165.96875 148.878906 166.324219 150.125 167.003906 C 152.695312 168.398438 153.992188 171.714844 153.015625 174.386719 C 152.722656 175.203125 153.09375 176.105469 153.878906 176.476562 C 154.660156 176.84375 155.597656 176.550781 156.035156 175.804688 C 156.9375 174.25 158.777344 173.289062 160.835938 173.289062 C 161.617188 173.289062 162.390625 173.4375 163.078125 173.71875 C 165.605469 174.757812 167.210938 177.605469 166.734375 180.203125 C 166.582031 181.03125 167.066406 181.84375 167.867188 182.097656 C 168.671875 182.355469 169.539062 181.976562 169.894531 181.214844 C 170.972656 178.90625 173.636719 177.292969 176.371094 177.292969 C 176.929688 177.292969 177.476562 177.363281 178 177.496094 C 183.09375 178.796875 183.660156 180.660156 183.539062 182.308594 C 183.476562 183.171875 184.078125 183.9375 184.929688 184.082031 C 185.023438 184.097656 185.117188 184.101562 185.207031 184.101562 C 185.953125 184.101562 186.628906 183.601562 186.824219 182.855469 C 187.753906 179.304688 189.84375 177.601562 194.277344 176.785156 C 194.738281 176.699219 195.210938 176.65625 195.6875 176.65625 C 198.929688 176.65625 202.09375 178.570312 203.390625 181.316406 C 203.75 182.078125 204.621094 182.453125 205.421875 182.191406 C 206.222656 181.929688 206.703125 181.113281 206.542969 180.285156 C 205.941406 177.144531 207.925781 173.640625 210.878906 172.632812 C 211.492188 172.425781 212.148438 172.320312 212.832031 172.320312 C 215.441406 172.320312 217.953125 173.8125 218.949219 175.957031 C 219.332031 176.789062 220.316406 177.152344 221.152344 176.777344 C 221.984375 176.402344 222.363281 175.421875 222 174.582031 C 220.863281 171.976562 221.902344 168.488281 224.222656 167.121094 C 225.007812 166.65625 225.957031 166.410156 226.96875 166.410156 C 228.925781 166.410156 230.8125 167.328125 231.773438 168.746094 C 232.277344 169.492188 233.277344 169.703125 234.039062 169.230469 C 234.800781 168.757812 235.054688 167.765625 234.613281 166.984375 C 233.203125 164.488281 233.320312 161.179688 234.90625 158.753906 C 236.507812 156.304688 239.570312 154.761719 242.609375 154.914062 C 243.425781 154.957031 244.152344 154.402344 244.328125 153.601562 C 244.5 152.800781 244.070312 151.992188 243.308594 151.691406 C 240.992188 150.769531 239.410156 148.175781 239.542969 145.515625 C 239.675781 142.886719 241.535156 140.332031 244.058594 139.304688 C 244.851562 138.980469 245.273438 138.109375 245.035156 137.285156 C 244.792969 136.460938 243.96875 135.953125 243.125 136.109375 C 242.394531 136.246094 241.648438 136.3125 240.898438 136.3125 C 238.429688 136.3125 236.253906 135.570312 234.933594 134.273438 C 233.117188 132.5 232.660156 129.5 233.863281 127.300781 C 234.21875 126.648438 234.101562 125.839844 233.574219 125.3125 C 233.050781 124.789062 232.238281 124.675781 231.585938 125.035156 C 230.0625 125.875 228.253906 126.339844 226.492188 126.339844 C 225.21875 126.339844 223.992188 126.089844 222.949219 125.621094 C 220.351562 124.445312 218.523438 121.804688 218.402344 119.050781 C 218.367188 118.300781 217.839844 117.664062 217.105469 117.496094 C 216.375 117.324219 215.621094 117.664062 215.261719 118.324219 C 214.160156 120.355469 211.542969 121.769531 208.898438 121.769531 C 208.484375 121.769531 208.074219 121.734375 207.679688 121.664062 C 204.710938 121.140625 202.15625 118.582031 201.742188 115.710938 C 201.636719 114.984375 201.066406 114.410156 200.339844 114.296875 C 199.613281 114.1875 198.898438 114.566406 198.578125 115.226562 C 197.289062 117.917969 194.234375 119.855469 191.152344 119.933594 C 188.019531 120.019531 184.917969 118.257812 183.46875 115.613281 C 183.121094 114.972656 182.394531 114.636719 181.679688 114.777344 C 180.964844 114.917969 180.421875 115.507812 180.34375 116.234375 C 180.046875 118.890625 177.671875 121.167969 174.824219 121.535156 C 174.554688 121.570312 174.277344 121.585938 173.996094 121.585938 C 171.425781 121.585938 168.847656 120.074219 167.730469 117.910156 C 167.390625 117.25 166.652344 116.890625 165.917969 117.039062 C 165.1875 117.183594 164.640625 117.792969 164.578125 118.535156 C 164.390625 120.75 162.820312 122.714844 160.761719 123.308594 C 160.316406 123.441406 159.839844 123.507812 159.351562 123.507812 C 157.632812 123.507812 155.972656 122.71875 155.019531 121.449219 C 154.609375 120.902344 153.90625 120.660156 153.246094 120.835938 C 152.585938 121.015625 152.101562 121.578125 152.023438 122.253906 C 151.554688 126.203125 147.5 128.5625 143.847656 128.5625 C 142.324219 128.5625 140.890625 128.167969 139.703125 127.421875 C 138.996094 126.980469 138.074219 127.121094 137.535156 127.757812 C 136.996094 128.394531 137.011719 129.332031 137.566406 129.953125 C 139.242188 131.832031 139.402344 134.894531 137.929688 136.925781 C 136.585938 138.777344 135.90625 139.339844 135.027344 139.339844 C 134.652344 139.339844 134.183594 139.246094 133.636719 139.054688 C 133.5625 139.027344 133.488281 139 133.410156 138.976562 C 132.542969 138.683594 131.605469 139.140625 131.296875 140 C 130.992188 140.863281 131.4375 141.8125 132.292969 142.128906 Z M 137.449219 147.539062 C 137.425781 147.140625 137.410156 146.746094 137.394531 146.359375 C 137.34375 145.078125 137.289062 143.648438 136.851562 142.359375 C 138.4375 141.753906 139.554688 140.378906 140.636719 138.890625 C 142.128906 136.835938 142.597656 134.207031 142.085938 131.777344 C 142.664062 131.863281 143.25 131.90625 143.847656 131.90625 C 148.03125 131.90625 152.699219 129.675781 154.570312 125.476562 C 155.972656 126.351562 157.652344 126.851562 159.351562 126.851562 C 160.15625 126.851562 160.945312 126.738281 161.695312 126.523438 C 163.929688 125.875 165.808594 124.253906 166.90625 122.195312 C 168.804688 123.898438 171.375 124.929688 173.996094 124.929688 C 174.417969 124.929688 174.839844 124.902344 175.25 124.851562 C 178.429688 124.441406 181.160156 122.519531 182.609375 119.898438 C 184.878906 122.058594 188.050781 123.359375 191.238281 123.277344 C 194.390625 123.195312 197.441406 121.78125 199.585938 119.554688 C 201.117188 122.300781 203.910156 124.394531 207.097656 124.960938 C 207.683594 125.0625 208.289062 125.117188 208.898438 125.117188 C 211.457031 125.117188 213.957031 124.207031 215.84375 122.691406 C 216.910156 125.28125 218.972656 127.492188 221.574219 128.667969 C 223.066406 129.339844 224.722656 129.683594 226.492188 129.683594 C 227.621094 129.683594 228.765625 129.539062 229.875 129.261719 C 229.660156 131.949219 230.609375 134.726562 232.589844 136.664062 C 234.074219 138.117188 236.113281 139.078125 238.476562 139.464844 C 237.140625 141.148438 236.3125 143.207031 236.203125 145.347656 C 236.074219 147.875 236.9375 150.316406 238.472656 152.160156 C 235.878906 153.003906 233.566406 154.691406 232.109375 156.921875 C 230.792969 158.933594 230.179688 161.304688 230.285156 163.644531 C 229.242188 163.269531 228.117188 163.066406 226.96875 163.066406 C 225.359375 163.066406 223.820312 163.472656 222.519531 164.238281 C 220.269531 165.566406 218.789062 167.941406 218.328125 170.527344 C 216.71875 169.539062 214.808594 168.972656 212.832031 168.972656 C 211.78125 168.972656 210.761719 169.140625 209.800781 169.46875 C 206.777344 170.496094 204.464844 173.128906 203.535156 176.1875 C 201.402344 174.386719 198.597656 173.3125 195.6875 173.3125 C 195.007812 173.3125 194.328125 173.371094 193.671875 173.492188 C 190.882812 174.007812 187.683594 175 185.515625 177.875 C 183.609375 175.476562 180.242188 174.617188 178.828125 174.253906 C 178.035156 174.050781 177.210938 173.949219 176.371094 173.949219 C 173.898438 173.949219 171.515625 174.824219 169.660156 176.296875 C 168.796875 173.808594 166.886719 171.667969 164.351562 170.625 C 163.246094 170.171875 162.066406 169.941406 160.835938 169.941406 C 159.304688 169.941406 157.835938 170.300781 156.558594 170.945312 C 156.085938 168.117188 154.34375 165.488281 151.722656 164.0625 C 149.988281 163.121094 148 162.621094 145.972656 162.621094 C 145.28125 162.621094 144.597656 162.679688 143.925781 162.789062 C 144.335938 160.570312 143.761719 158.152344 142.160156 156.082031 C 140.441406 153.859375 138.488281 152.550781 136.457031 152.253906 C 137.09375 150.832031 137.550781 149.175781 137.449219 147.539062 Z M 137.449219 147.539062 " fill-opacity="1" fill-rule="nonzero"/></g><path fill="#eb8d96" d="M 184.628906 149.277344 C 179.445312 147.03125 176.558594 130.992188 180.039062 126.367188 C 182.636719 122.914062 192.1875 122.34375 198.183594 125.710938 C 201.394531 127.515625 205.789062 132.433594 203.648438 137.042969 C 199.640625 145.679688 187.632812 150.582031 184.628906 149.277344 " fill-opacity="1" fill-rule="nonzero"/><path fill="#ffd9dd" d="M 191.824219 139.417969 C 191.972656 140.601562 191.222656 141.925781 190.578125 142.792969 C 190.304688 143.15625 189.152344 143.523438 188.507812 142.839844 C 187.347656 141.613281 189 139.230469 189.75 138.671875 C 190.859375 137.835938 191.773438 139.007812 191.824219 139.417969 Z M 189.75 130.328125 C 189 130.890625 187.347656 133.269531 188.507812 134.5 C 189.152344 135.183594 190.304688 134.816406 190.578125 134.453125 C 191.222656 133.585938 191.972656 132.261719 191.824219 131.074219 C 191.773438 130.667969 190.859375 129.496094 189.75 130.328125 Z M 198.378906 134.179688 C 198.328125 133.769531 197.414062 132.597656 196.304688 133.429688 C 195.554688 133.992188 193.902344 136.371094 195.0625 137.601562 C 195.707031 138.285156 196.859375 137.917969 197.132812 137.554688 C 197.78125 136.6875 198.527344 135.363281 198.378906 134.179688 Z M 188.726562 127.925781 C 189.628906 127.578125 189.34375 126.179688 188.378906 126.191406 C 185.863281 125.921875 183.421875 127.183594 182.15625 129.382812 C 181.648438 130.339844 181.460938 131.425781 181.277344 132.484375 C 180.929688 134.339844 181.144531 137.355469 182.097656 139.992188 C 182.1875 140.230469 182.28125 140.472656 182.375 140.710938 C 182.46875 140.941406 182.472656 140.945312 182.382812 140.730469 C 182.429688 140.914062 182.554688 141.070312 182.714844 141.164062 C 183.199219 141.46875 183.835938 141.039062 183.804688 140.503906 C 183.8125 140.40625 183.820312 140.3125 183.828125 140.214844 C 183.921875 139.027344 183.933594 138.566406 183.839844 137.019531 C 183.6875 135.285156 183.511719 132.347656 183.726562 131.621094 C 183.792969 131.28125 183.875 130.941406 183.996094 130.617188 C 184.128906 130.335938 184.292969 130.074219 184.476562 129.828125 C 184.488281 129.808594 184.503906 129.789062 184.519531 129.773438 C 185.289062 128.980469 185.09375 129.152344 185.878906 128.648438 C 186.566406 128.304688 186.199219 128.433594 187.109375 128.167969 C 187.90625 127.996094 187.449219 128.0625 188.140625 128.007812 C 188.339844 127.996094 188.550781 128.027344 188.726562 127.925781 Z M 185.332031 144.238281 C 185.324219 144.175781 185.316406 144.09375 185.3125 144.011719 C 185.304688 143.851562 185.230469 143.40625 185.195312 143.222656 C 185.15625 142.828125 185.113281 142.433594 184.8125 142.140625 C 183.964844 141.273438 182.484375 142.140625 182.816406 143.308594 C 182.9375 143.917969 183.125 144.511719 183.457031 145.042969 C 183.632812 145.335938 183.84375 145.636719 184.195312 145.722656 C 184.902344 145.933594 185.613281 145.222656 185.398438 144.511719 C 185.367188 144.421875 185.347656 144.332031 185.332031 144.238281 Z M 185.332031 144.238281 " fill-opacity="1" fill-rule="nonzero"/><path fill="#a7d9ba" d="M 209.144531 126.449219 C 207.378906 128.445312 204.507812 129.296875 201.71875 129.488281 C 201.296875 129.042969 200.859375 128.621094 200.421875 128.21875 C 199.257812 127.15625 197.953125 126.25 196.5625 125.519531 C 194.011719 124.175781 191.167969 123.503906 188.304688 123.375 C 187.171875 121.144531 186.515625 117.917969 186.417969 115.773438 C 186.296875 113.148438 187.027344 110.492188 188.472656 108.300781 C 190.507812 110.601562 192.074219 113.316406 193.046875 116.234375 C 193.355469 114.574219 194.597656 113.257812 195.863281 112.144531 C 197.960938 110.304688 200.28125 108.722656 202.757812 107.453125 C 204.542969 111.523438 205.03125 116.15625 204.136719 120.511719 C 206.605469 120.0625 208.996094 119.175781 211.164062 117.910156 C 212.28125 120.777344 211.175781 124.148438 209.144531 126.449219 Z M 209.144531 126.449219 " fill-opacity="1" fill-rule="nonzero"/><path fill="#7ea88e" d="M 199.679688 112.535156 C 199.132812 112.539062 198.71875 112.960938 198.28125 113.238281 C 197.25 113.945312 196.320312 114.789062 195.566406 115.796875 C 195.007812 116.507812 194.484375 117.261719 194.167969 118.113281 C 193.867188 118.8125 193.65625 119.546875 193.554688 120.300781 C 193.484375 120.65625 193.414062 121.042969 193.625 121.367188 C 194.070312 122.175781 195.347656 122.007812 195.574219 121.109375 C 195.953125 119.742188 195.921875 119.871094 196.527344 118.761719 C 197.476562 117.105469 198.085938 116.441406 199.804688 114.980469 C 199.96875 114.839844 200.035156 114.820312 200.375 114.527344 C 200.398438 114.511719 200.417969 114.496094 200.4375 114.476562 C 200.445312 114.46875 200.453125 114.460938 200.464844 114.453125 C 200.457031 114.457031 200.453125 114.464844 200.445312 114.46875 C 200.589844 114.328125 200.703125 114.152344 200.757812 113.953125 C 200.960938 113.261719 200.394531 112.527344 199.679688 112.535156 " fill-opacity="1" fill-rule="nonzero"/><g clip-path="url(#20b7fcf370)"><path fill="#bb7953" d="M 212.136719 117.527344 C 212.023438 117.242188 211.796875 117.019531 211.507812 116.917969 C 211.21875 116.816406 210.902344 116.847656 210.636719 117.003906 C 209 117.960938 207.25 118.683594 205.421875 119.15625 C 205.960938 115.058594 205.371094 110.808594 203.714844 107.027344 C 203.601562 106.765625 203.378906 106.558594 203.109375 106.460938 C 202.839844 106.367188 202.539062 106.386719 202.285156 106.515625 C 199.726562 107.828125 197.335938 109.457031 195.175781 111.355469 C 194.453125 111.988281 193.707031 112.710938 193.113281 113.554688 C 192.125 111.394531 190.816406 109.367188 189.253906 107.601562 C 189.039062 107.359375 188.722656 107.230469 188.398438 107.253906 C 188.074219 107.277344 187.78125 107.449219 187.601562 107.722656 C 186.035156 110.097656 185.242188 112.976562 185.375 115.824219 C 185.449219 117.460938 185.890625 120.171875 186.777344 122.5 C 183.285156 122.816406 180.527344 123.976562 179.203125 125.734375 C 176.820312 128.902344 177.191406 135.90625 178.546875 141.070312 C 179.148438 143.347656 180.894531 148.800781 184.214844 150.242188 C 184.664062 150.4375 185.226562 150.535156 185.886719 150.535156 C 188.34375 150.535156 192.140625 149.167969 195.558594 147.050781 C 199.71875 144.46875 202.929688 141.074219 204.59375 137.488281 C 205.636719 135.242188 205.457031 132.742188 204.074219 130.230469 C 206.121094 129.8125 208.34375 128.933594 209.921875 127.144531 C 212.4375 124.304688 213.304688 120.527344 212.136719 117.527344 Z M 202.703125 136.597656 C 199.347656 143.828125 189.773438 148.4375 185.886719 148.4375 C 185.398438 148.4375 185.148438 148.359375 185.042969 148.316406 C 183.347656 147.582031 181.636719 144.601562 180.566406 140.535156 C 179.109375 134.984375 179.242188 129.167969 180.871094 127 C 182.007812 125.488281 185.113281 124.511719 188.773438 124.511719 C 192.035156 124.511719 195.277344 125.28125 197.671875 126.628906 C 200.34375 128.128906 204.5625 132.59375 202.703125 136.597656 Z M 208.363281 125.753906 C 207.1875 127.082031 205.21875 127.976562 202.785156 128.320312 C 201.472656 126.695312 199.894531 125.472656 198.691406 124.796875 C 196.054688 123.3125 192.535156 122.449219 189.007812 122.414062 C 188.132812 120.449219 187.550781 117.726562 187.460938 115.726562 C 187.371094 113.800781 187.78125 111.859375 188.628906 110.132812 C 190.113281 112.0625 191.289062 114.265625 192.058594 116.570312 C 192.207031 117.023438 192.644531 117.3125 193.121094 117.28125 C 193.59375 117.25 193.988281 116.898438 194.074219 116.425781 C 194.328125 115.042969 195.46875 113.882812 196.550781 112.933594 C 198.296875 111.402344 200.203125 110.054688 202.230469 108.925781 C 203.570312 112.53125 203.886719 116.527344 203.113281 120.300781 C 203.042969 120.640625 203.148438 120.996094 203.390625 121.246094 C 203.632812 121.492188 203.984375 121.605469 204.324219 121.542969 C 206.480469 121.152344 208.550781 120.453125 210.5 119.464844 C 210.804688 121.515625 210.027344 123.867188 208.363281 125.753906 Z M 208.363281 125.753906 " fill-opacity="1" fill-rule="nonzero"/></g></svg>