<?xml version="1.0" standalone="no"?>
<!DOCTYPE svg PUBLIC "-//W3C//DTD SVG 20010904//EN"
 "http://www.w3.org/TR/2001/REC-SVG-20010904/DTD/svg10.dtd">
<svg version="1.0" xmlns="http://www.w3.org/2000/svg"
 width="700.000000pt" height="700.000000pt" viewBox="0 0 700.000000 700.000000"
 preserveAspectRatio="xMidYMid meet">
<metadata>
Created by potrace 1.14, written by Peter Selinger 2001-2017
</metadata>
<g transform="translate(0.000000,700.000000) scale(0.100000,-0.100000)"
fill="#000000" stroke="none">
<path d="M0 3500 l0 -3500 3500 0 3500 0 0 3500 0 3500 -3500 0 -3500 0 0
-3500z m3648 1458 l34 -10 -37 -34 c-21 -19 -39 -34 -40 -34 -6 0 -55 80 -55
90 0 10 42 5 98 -12z m141 -19 c6 -18 11 -70 11 -115 0 -95 5 -99 77 -69 52
22 63 15 53 -31 -12 -53 -40 -86 -93 -108 l-45 -19 -43 37 c-44 37 -145 76
-200 76 -25 0 -30 5 -40 43 -16 56 -15 146 0 176 l13 23 22 -33 c12 -19 28
-49 35 -66 16 -40 33 -42 47 -5 10 25 124 122 144 122 4 0 13 -14 19 -31z
m-305 4 c-4 -10 -10 -49 -13 -88 l-6 -69 -27 33 c-34 39 -59 37 -70 -6 -12
-48 -60 -83 -114 -83 -53 0 -94 19 -122 56 -24 33 -48 27 -57 -15 -9 -41 -58
-81 -99 -81 -19 0 -49 11 -70 25 -20 14 -41 25 -45 25 -5 0 -16 -20 -25 -45
-26 -66 -65 -90 -146 -89 -36 0 -75 4 -87 8 -32 12 -40 -15 -18 -60 22 -46 13
-93 -24 -133 -25 -26 -34 -30 -61 -25 -46 10 -59 -14 -23 -43 26 -21 28 -29
28 -91 0 -57 -4 -75 -27 -109 -33 -50 -25 -66 29 -57 49 7 77 -6 103 -49 25
-41 25 -74 -1 -116 -29 -48 -14 -58 55 -37 63 20 113 14 152 -17 36 -28 56
-80 48 -122 -9 -48 17 -57 55 -20 78 74 201 17 201 -93 0 -42 25 -48 50 -11
12 16 35 36 52 45 68 35 191 3 204 -54 10 -47 13 -52 28 -52 9 0 25 18 36 39
25 51 59 76 119 91 79 19 133 -3 193 -78 26 -33 48 -18 48 32 0 54 31 103 77
122 52 22 98 11 146 -37 23 -22 45 -38 51 -36 6 2 11 32 11 70 0 55 4 69 24
91 26 28 76 42 110 31 12 -3 35 -18 52 -32 27 -23 32 -24 46 -11 12 12 13 20
4 36 -19 36 -13 116 12 152 27 40 80 70 123 70 58 0 60 23 9 73 -39 39 -45 50
-45 86 0 53 19 91 66 128 46 37 38 53 -27 53 -62 0 -109 19 -138 56 -21 26
-22 36 -17 93 l7 63 -33 -6 c-86 -17 -145 -18 -176 -2 -37 19 -70 63 -79 106
-8 44 -29 48 -65 11 -38 -39 -48 -39 -48 -2 0 42 -14 46 -72 21 -27 -12 -51
-20 -53 -18 -1 2 -5 38 -7 80 -3 77 -3 77 23 83 47 11 108 -13 160 -62 46 -43
50 -45 80 -34 18 6 58 11 89 11 88 0 127 -32 169 -142 10 -25 15 -28 59 -28
95 0 186 -89 182 -178 -3 -57 -2 -58 39 -74 105 -42 107 -189 4 -277 l-46 -39
22 -30 c30 -42 28 -107 -4 -154 -31 -46 -113 -88 -172 -88 -37 0 -45 -4 -53
-26 -6 -14 -10 -38 -10 -54 0 -19 -11 -42 -29 -62 -28 -32 -32 -33 -98 -31
-37 0 -79 3 -92 5 -19 2 -26 -3 -34 -27 -26 -80 -87 -120 -169 -113 -28 3 -62
14 -78 27 -39 28 -47 27 -63 -12 -19 -44 -78 -94 -127 -107 -56 -15 -132 8
-188 56 l-43 36 -43 -40 c-86 -79 -176 -64 -251 42 l-20 28 -43 -22 c-72 -38
-157 -12 -182 55 -23 60 -23 60 -88 57 -44 -3 -71 1 -103 16 -58 26 -117 89
-133 142 -11 39 -18 45 -64 62 -90 33 -130 100 -102 172 8 21 6 29 -12 46 -12
11 -26 20 -30 20 -15 0 -66 91 -73 130 -8 49 13 100 57 134 33 25 34 28 30 79
-7 86 40 147 112 147 28 0 40 17 50 68 19 102 136 153 235 102 l39 -19 27 35
c47 61 140 83 207 48 30 -16 31 -16 55 15 14 17 38 38 53 46 37 19 111 19 157
0 42 -18 73 -19 73 -4 0 6 14 24 31 40 35 33 66 40 53 12z m-11 -219 c17 -11
16 -13 -15 -19 -64 -15 -97 -37 -119 -83 -43 -87 -8 -300 62 -385 27 -33 35
-37 78 -37 104 0 274 117 327 226 24 49 26 59 15 93 -16 54 -15 59 20 66 18 4
50 26 73 49 51 53 117 87 124 66 3 -8 24 -34 47 -56 47 -46 109 -66 178 -57
36 5 37 4 37 -27 0 -68 46 -124 122 -149 l37 -12 -21 -35 c-28 -48 -28 -120 0
-167 l21 -37 -38 -20 c-55 -27 -98 -84 -112 -146 l-12 -52 -38 5 c-21 3 -49 3
-63 -1 -38 -9 -93 -62 -106 -101 l-11 -34 -34 15 c-43 18 -96 18 -139 0 -34
-14 -96 -81 -96 -103 0 -17 1 -17 -62 12 -29 14 -69 25 -89 25 -54 0 -131 -26
-163 -56 -23 -22 -32 -25 -45 -15 -75 55 -177 70 -245 36 -38 -18 -40 -18 -50
-1 -25 42 -48 64 -80 80 -37 17 -112 21 -135 7 -12 -8 -21 2 -41 42 -20 41
-35 56 -79 79 -35 18 -69 28 -97 28 l-44 0 0 38 c0 52 -48 118 -101 141 -32
13 -37 19 -31 36 4 11 7 54 7 95 0 70 2 77 28 99 37 31 67 92 67 134 0 33 1
34 49 40 64 8 122 37 158 82 27 32 32 35 57 25 36 -13 92 -13 119 1 12 6 36
25 53 41 l31 29 34 -19 c78 -45 159 -35 218 27 39 40 39 40 104 -5z m199 -76
c60 -28 111 -85 123 -138 19 -86 -118 -225 -267 -271 -61 -19 -63 -19 -87 -1
-52 39 -91 155 -91 275 0 55 19 136 32 137 2 0 21 7 43 15 61 23 177 15 247
-17z m-1345 -665 c-2 -21 -4 -4 -4 37 0 41 2 58 4 38 2 -21 2 -55 0 -75z m157
-151 c35 -17 49 -31 64 -66 41 -92 151 -167 250 -170 50 -1 54 -4 70 -35 23
-49 94 -91 153 -91 27 0 59 5 73 11 22 11 28 8 59 -25 76 -80 196 -87 273 -15
l22 20 48 -31 c53 -33 103 -50 149 -50 46 0 126 42 167 88 l37 41 35 -14 c89
-38 198 -5 251 75 l30 46 56 -4 c31 -2 73 1 92 7 45 15 93 69 107 120 10 40
16 44 75 56 17 3 51 19 75 35 25 17 48 30 53 30 4 0 7 -123 7 -272 0 -456 -27
-552 -211 -736 -161 -163 -366 -256 -651 -298 -156 -23 -460 -15 -603 16 -335
72 -605 230 -734 430 -71 109 -75 142 -68 540 3 192 8 354 12 360 4 6 18 -1
35 -18 16 -16 49 -39 74 -50z m-177 -612 c13 -126 39 -194 117 -297 220 -291
737 -474 1224 -434 403 33 681 160 874 400 79 98 123 194 144 312 9 52 17 96
19 97 8 9 116 -72 159 -118 70 -75 91 -127 91 -230 0 -140 -58 -255 -196 -384
-66 -62 -101 -86 -202 -135 -175 -85 -355 -138 -592 -177 -135 -21 -520 -30
-667 -15 -375 40 -755 166 -1015 337 -95 64 -161 133 -200 212 -25 50 -28 68
-28 152 0 85 3 101 30 153 16 33 47 80 69 105 38 42 144 132 157 132 3 0 10
-49 16 -110z"/>
</g>
</svg>
